<svg width="22" height="31" viewBox="0 0 22 31" fill="none" xmlns="http://www.w3.org/2000/svg">
<path fill-rule="evenodd" clip-rule="evenodd" d="M0 0.999513C0 0.447228 0.447715 -0.000488281 1 -0.000488281H21C21.5523 -0.000488281 22 0.447227 22 0.999512V29.9995C22 30.5518 21.5523 30.9995 21 30.9995H1C0.447716 30.9995 0 30.5518 0 29.9995V0.999513ZM1.70778 2.51144H20.2307V26.4266H1.70778V2.51144ZM10.9694 28.8978C10.4821 28.8978 10.0871 28.5028 10.0871 28.0155C10.0871 27.5282 10.4821 27.1331 10.9694 27.1331C11.4567 27.1331 11.8518 27.5282 11.8518 28.0155C11.8518 28.5028 11.4567 28.8978 10.9694 28.8978Z" fill="#BDBDBD"/>
<path fill-rule="evenodd" clip-rule="evenodd" d="M0 0.999513C0 0.447228 0.447715 -0.000488281 1 -0.000488281H21C21.5523 -0.000488281 22 0.447227 22 0.999512V29.9995C22 30.5518 21.5523 30.9995 21 30.9995H1C0.447716 30.9995 0 30.5518 0 29.9995V0.999513ZM1.70778 2.51144H20.2307V26.4266H1.70778V2.51144ZM10.9694 28.8978C10.4821 28.8978 10.0871 28.5028 10.0871 28.0155C10.0871 27.5282 10.4821 27.1331 10.9694 27.1331C11.4567 27.1331 11.8518 27.5282 11.8518 28.0155C11.8518 28.5028 11.4567 28.8978 10.9694 28.8978Z" fill="url(#paint0_linear)"/>
<defs>
<linearGradient id="paint0_linear" x1="1.73397e-07" y1="8.89294" x2="22.224" y2="9.23886" gradientUnits="userSpaceOnUse">
<stop stop-color="#1C6AAE"/>
<stop offset="1" stop-color="#52A7F0"/>
</linearGradient>
</defs>
</svg>
