<svg width="42" height="30" viewBox="0 0 42 30" fill="none" xmlns="http://www.w3.org/2000/svg">
<path fill-rule="evenodd" clip-rule="evenodd" d="M1 0C0.447715 0 0 0.447715 0 1V23.5637C0 24.116 0.447714 24.5637 0.999999 24.5637H40.879C41.4313 24.5637 41.879 24.116 41.879 23.5637V1C41.879 0.447715 41.4313 0 40.879 0H1ZM39.4187 2.38238H2.46069V22.1813H39.4187V2.38238Z" fill="#BDBDBD"/>
<path fill-rule="evenodd" clip-rule="evenodd" d="M1 26.1359C0.447715 26.1359 0 26.5836 0 27.1359V28.9999C0 29.5522 0.447714 29.9999 0.999999 29.9999H40.879C41.4313 29.9999 41.879 29.5522 41.879 28.9999V27.1359C41.879 26.5836 41.4313 26.1359 40.879 26.1359H1ZM28.0821 27.4329H13.7961V28.7027H28.0821V27.4329Z" fill="#BDBDBD"/>
</svg>
