<svg width="36" height="36" viewBox="6 7 21 21" fill="none" xmlns="http://www.w3.org/2000/svg">
<circle cx="16" cy="18" r="10" fill="#4F4F4F"/>
<g filter="url(#filter0_d)">
<path fill-rule="evenodd" clip-rule="evenodd" d="M19.2427 14.0722C19.2427 16.8435 16.9672 18 15.9994 18C15.0316 18 12.7561 16.8435 12.7561 14.0723C12.7561 13.6858 12.7656 13.3124 12.7976 12.9596C12.8503 12.265 12.9936 11.6495 13.3504 11.1778C13.8078 10.5362 14.608 10.1445 15.9994 10.1445C17.391 10.1445 18.1912 10.5364 18.6486 11.1782C19.0052 11.6498 19.1484 12.2651 19.2011 12.9595C19.2332 13.3123 19.2427 13.6857 19.2427 14.0722ZM13.6804 13.8938C13.4347 13.8645 13.2759 13.5525 13.2386 13.4714C13.231 13.6702 13.2282 13.8716 13.2282 14.0723C13.2282 15.4269 13.8306 16.2662 14.336 16.7317C14.9727 17.3184 15.6796 17.5313 15.9994 17.5313C16.3192 17.5313 17.0262 17.3184 17.6629 16.7317C18.1682 16.2662 18.7706 15.4269 18.7706 14.0723C18.7706 13.8716 18.7678 13.6702 18.7602 13.4714C18.7228 13.5525 18.5641 13.8645 18.3183 13.8938C18.2303 13.9043 18.1241 13.8117 17.9722 13.6792C17.6367 13.3867 17.0783 12.8997 15.9994 12.898C14.9204 12.8997 14.362 13.3867 14.0266 13.6792C13.8746 13.8117 13.7685 13.9043 13.6804 13.8938ZM20.6817 19.319C21.3443 19.7083 21.6746 20.8036 21.8351 21.6539C21.841 21.685 21.8376 21.7168 21.8254 21.7465C21.8092 21.7854 21.5573 22.3412 20.2989 22.7887C20.0429 22.511 20.0324 22.6617 20.0081 23.013C19.9496 23.8563 19.8111 25.8556 16 25.8556C12.1149 25.8556 11.9961 23.8393 11.9477 23.0173C11.9288 22.6972 11.9206 22.5582 11.7048 22.79C10.4432 22.3423 10.1909 21.7854 10.1747 21.7465C10.1624 21.7168 10.1591 21.685 10.1649 21.6539C10.224 21.3407 10.5575 19.7558 11.3203 19.3179C11.7709 19.059 13.3689 18.3256 14.035 18.0222C14.1121 17.9871 14.2061 17.9941 14.275 18.0401C14.6281 18.2764 15.0149 18.4356 15.4246 18.5134C15.4971 18.5271 15.5565 18.571 15.5827 18.63L16 19.5674L16.4173 18.63C16.4435 18.571 16.503 18.5271 16.5753 18.5134C16.9851 18.4356 17.3719 18.2764 17.7251 18.0401C17.7938 17.9942 17.8879 17.9871 17.9649 18.0222L17.9763 18.0274C18.6505 18.3343 20.2292 19.0531 20.6817 19.319Z" fill="#9EBFFF"/>
<path d="M16.9668 11.5652C16.9708 11.5287 16.9733 11.4917 16.9733 11.454C16.9733 11.4164 16.9708 11.3793 16.9667 11.3428L16.6889 11.243C16.6751 11.1972 16.6569 11.1534 16.635 11.1117L16.7614 10.8432C16.7154 10.785 16.663 10.7321 16.6054 10.6857L16.3394 10.8135C16.2979 10.791 16.2543 10.7728 16.2093 10.7591L16.1106 10.4786C16.0743 10.4745 16.0376 10.4719 16.0003 10.4719C15.963 10.4719 15.9263 10.4745 15.8901 10.4786L15.7914 10.7591C15.7459 10.773 15.7025 10.7912 15.6613 10.8135L15.3952 10.6857C15.3375 10.7321 15.2852 10.7849 15.2391 10.8432L15.3658 11.1116C15.3437 11.1532 15.3256 11.1971 15.3118 11.2429L15.034 11.3428C15.0299 11.3793 15.0273 11.4165 15.0273 11.4541C15.0273 11.4917 15.0299 11.5287 15.034 11.5653L15.3118 11.6651C15.3256 11.7109 15.3437 11.7548 15.3658 11.7964L15.2392 12.0649C15.2852 12.1232 15.3375 12.1759 15.3953 12.2223L15.6611 12.0945C15.7023 12.1168 15.7458 12.1352 15.7912 12.1491L15.89 12.4295C15.9262 12.4335 15.9629 12.4361 16.0003 12.4361C16.0376 12.4361 16.0742 12.4335 16.1104 12.4294L16.2093 12.149C16.2547 12.135 16.2981 12.1167 16.3394 12.0945L16.6054 12.2221C16.6631 12.1757 16.7154 12.1229 16.7614 12.0647L16.6349 11.7963C16.657 11.7548 16.6751 11.7108 16.689 11.6649L16.9667 11.5652H16.9668ZM16.0003 11.766C15.9597 11.766 15.9195 11.7579 15.882 11.7422C15.8445 11.7266 15.8105 11.7036 15.7817 11.6746C15.7238 11.6161 15.6912 11.5368 15.6912 11.454C15.6912 11.3713 15.7237 11.2919 15.7817 11.2334C15.8396 11.1749 15.9182 11.142 16.0002 11.142C16.0822 11.142 16.1608 11.1748 16.2188 11.2333C16.2768 11.2918 16.3093 11.3712 16.3094 11.4539C16.3094 11.5366 16.2768 11.616 16.2189 11.6745C16.1609 11.7331 16.0823 11.7659 16.0003 11.766Z" fill="#505151"/>
</g>
<defs>
<filter id="filter0_d" x="0.162109" y="0.144531" width="31.6758" height="35.711" filterUnits="userSpaceOnUse" color-interpolation-filters="sRGB">
<feFlood flood-opacity="0" result="BackgroundImageFix"/>
<feColorMatrix in="SourceAlpha" type="matrix" values="0 0 0 0 0 0 0 0 0 0 0 0 0 0 0 0 0 0 127 0"/>
<feOffset/>
<feGaussianBlur stdDeviation="5"/>
<feColorMatrix type="matrix" values="0 0 0 0 0.600043 0 0 0 0 0.768348 0 0 0 0 0.900065 0 0 0 0.15 0"/>
<feBlend mode="normal" in2="BackgroundImageFix" result="effect1_dropShadow"/>
<feBlend mode="normal" in="SourceGraphic" in2="effect1_dropShadow" result="shape"/>
</filter>
</defs>
</svg>
