<svg width="19" height="30" viewBox="0 0 19 30" fill="none" xmlns="http://www.w3.org/2000/svg">
<path fill-rule="evenodd" clip-rule="evenodd" d="M0 0.999513C0 0.447228 0.447715 -0.000488281 1 -0.000488281H18C18.5523 -0.000488281 19 0.447227 19 0.999512V28.9995C19 29.5518 18.5523 29.9995 18 29.9995H1C0.447715 29.9995 0 29.5518 0 28.9995V0.999513ZM2 2.99951H17V25.9995H2V2.99951ZM9.82359 28.8978C9.33628 28.8978 8.94124 28.5028 8.94124 28.0155C8.94124 27.5282 9.33628 27.1331 9.82359 27.1331C10.3109 27.1331 10.7059 27.5282 10.7059 28.0155C10.7059 28.5028 10.3109 28.8978 9.82359 28.8978Z" fill="#BDBDBD"/>
</svg>
